<?xml version="1.0" encoding="UTF-8" standalone="no"?>
<svg
   xmlns:dc="http://purl.org/dc/elements/1.1/"
   xmlns:cc="http://creativecommons.org/ns#"
   xmlns:rdf="http://www.w3.org/1999/02/22-rdf-syntax-ns#"
   xmlns:svg="http://www.w3.org/2000/svg"
   xmlns="http://www.w3.org/2000/svg"
   xmlns:sodipodi="http://sodipodi.sourceforge.net/DTD/sodipodi-0.dtd"
   xmlns:inkscape="http://www.inkscape.org/namespaces/inkscape"
   width="391.36203"
   height="118.18195"
   version="1.1"
   viewBox="0 0 103.5469 31.269577"
   id="svg3515"
   sodipodi:docname="combo_black.svg"
   inkscape:version="0.92.4 (5da689c313, 2019-01-14)">
  <metadata
     id="metadata3521">
    <rdf:RDF>
      <cc:Work
         rdf:about="">
        <dc:format>image/svg+xml</dc:format>
        <dc:type
           rdf:resource="http://purl.org/dc/dcmitype/StillImage" />
        <dc:title></dc:title>
      </cc:Work>
    </rdf:RDF>
  </metadata>
  <defs
     id="defs3519" />
  <sodipodi:namedview
     pagecolor="#ffffff"
     bordercolor="#666666"
     borderopacity="1"
     objecttolerance="10"
     gridtolerance="10"
     guidetolerance="10"
     inkscape:pageopacity="0"
     inkscape:pageshadow="2"
     inkscape:window-width="2087"
     inkscape:window-height="1100"
     id="namedview3517"
     showgrid="false"
     showguides="true"
     inkscape:guide-bbox="true"
     inkscape:zoom="7.1688603"
     inkscape:cx="351.90434"
     inkscape:cy="33.694846"
     inkscape:window-x="0"
     inkscape:window-y="0"
     inkscape:window-maximized="0"
     inkscape:current-layer="svg3515"
     fit-margin-top="0"
     fit-margin-left="0"
     fit-margin-right="0"
     fit-margin-bottom="0">
    <sodipodi:guide
       position="103.53932,6.1907536"
       orientation="1,0"
       id="guide6824"
       inkscape:locked="false" />
  </sodipodi:namedview>
  <g
     id="g6858"
     transform="translate(-0.00117348,7.7e-5)">
    <g
       id="g6701">
      <path
         inkscape:connector-curvature="0"
         d="m 10.582,3e-6 c -1.4233,0.0473 -2.3341,1.6326 -2.3011,3.3988 -1.4238,0.23818 -2.7388,0.71805 -3.8825,1.5125 -1.0353,-1.0353 -1.5827,-1.3232 -2.9192,-0.11473 -1.1651,1.0726 -1.3113,1.5848 -0.20619,2.897 0.1352,0.16049 0.26043,0.29063 0.38087,0.4067 -1.0458,2.0094 -1.6542,4.7421 -1.6542,8.3954 0,2.9089 0.99714,5.4223 2.4676,7.399 -0.107,0.13471 -0.21709,0.28489 -0.33382,0.46767 -0.93761,1.4682 -0.73457,1.9585 0.53742,2.8618 1.349,0.99397 1.9425,0.70595 2.7869,-0.42272 1.5331,1.0696 3.1806,1.7101 4.6488,1.8397 0.0793,0.747 0.0417,1.946 -0.96583,2.2934 0.43579,0 1.4337,-0.0857 1.8562,-0.58032 0.37422,-0.43825 0.60065,-0.93149 0.64802,-1.7653 1.402,-0.21114 2.9192,-0.84941 4.3264,-1.8516 1.315,1.6564 2.0679,1.1538 2.9952,0.36484 1.4214,-1.2094 1.1642,-1.7298 -0.0739,-3.2582 1.4394,-1.969 2.4071,-4.4642 2.4071,-7.3484 0,-3.646 -0.59552,-6.3691 -1.6216,-8.3716 0.14576,-0.15225 0.29993,-0.34135 0.46511,-0.57929 0.97409,-1.4035 0.77939,-1.9006 -0.48421,-2.8665 -1.0999,-0.84073 -1.7711,-1.0388 -2.7673,0.20257 -1.1778,-0.80837 -2.5364,-1.2844 -4.0085,-1.5089 0.0415,-1.4476 -0.69482,-3.3232 -2.3012,-3.3719 z"
         style="paint-order:normal"
         id="path3477" />
      <path
         inkscape:connector-curvature="0"
         d="m 9.8987,10.325 c 0,0.30529 0.38948,0.65541 0.44169,0.69783 0.15985,0.12987 0.13186,0.28882 0.13251,0.41147 0,0 -4.2327,-0.53121 -6.761,-1.3845 -0.40937,-0.13816 -1.3153,-0.34246 -1.5341,0.0439 -0.21876,0.38634 1.3033,1.6631 2.6312,2.2013 0.84132,0.34098 5.4566,0.84421 5.651,0.38497 -0.58627,0.51423 -6.6247,0.65223 -7.1892,1.5297 -0.8348,1.2976 2.7903,1.5685 3.3626,1.6463 0.6036,0.082 1.6395,0.0213 2.5076,-0.5077 1.4433,-0.87959 1.3074,-1.8398 1.3074,-1.8398 0,0 -0.0083,3.3872 -0.0083,5.7696 0,0 -0.01553,1.6295 -0.08782,2.2102 -0.04748,0.38145 0.419,0.95198 0.48028,1.025 0.06128,-0.0731 0.52776,-0.64359 0.48028,-1.025 -0.07228,-0.5807 -0.08782,-2.2102 -0.08782,-2.2102 0,-2.3824 -0.0083,-5.7696 -0.0083,-5.7696 0,0 -0.13594,0.96017 1.3074,1.8398 0.86805,0.529 1.904,0.58971 2.5076,0.5077 0.57223,-0.0777 4.1974,-0.34872 3.3626,-1.6463 -0.56451,-0.87745 -6.6029,-1.0154 -7.1892,-1.5297 0.19441,0.45924 4.8096,-0.044 5.651,-0.38497 1.3279,-0.53818 2.85,-1.815 2.6312,-2.2013 -0.21877,-0.38633 -1.1247,-0.18203 -1.5341,-0.0439 -2.5283,0.85329 -6.761,1.3845 -6.761,1.3845 -0.0015,-0.11315 -0.02974,-0.28075 0.12544,-0.41063 0.06033,-0.0505 0.47818,-0.39365 0.47818,-0.69708 0,-0.48189 -0.33757,-0.82731 -0.96341,-0.82731 -0.62584,0 -0.93358,0.31046 -0.93358,0.82572 z"
         style="fill:#ffffff;stroke:#fcfcfc;stroke-width:0.076221;paint-order:normal"
         id="path3479" />
    </g>
    <path
       d="M 29.7806,0.453 C 28.4884,0.42749 27.2417,1.564 27.2417,3.5489 v 11.837 c -0.74645,0.0039 -1.7727,0.01241 -2.2107,0.01241 v 0.76585 c 0.44196,0 1.461,-0.0088 2.2107,-0.01291 v 5.5268 c 0,1.595 -0.10008,2.6043 -0.39274,3.1207 -0.14633,0.25823 -0.32093,0.41305 -0.61133,0.52917 -0.2904,0.11611 -0.70619,0.17776 -1.2692,0.17776 v 0.76584 c 0.61692,0 1.1235,-0.06314 1.5524,-0.23461 0.42883,-0.17147 0.77156,-0.46794 0.99425,-0.86093 0.44539,-0.78599 0.49248,-1.8795 0.49248,-3.498 v -5.5309 c 0.91076,-0.0056 1.5777,-0.0074 2.4965,-0.01447 -0.01622,0.22296 -0.01601,0.39762 -0.01601,0.64286 0,0.52396 -0.02867,1.5195 0.29456,2.5298 0.16161,0.50513 0.4147,1.0013 0.82424,1.3906 0.40954,0.38935 0.97807,0.73958 1.6878,0.79046 0.97785,0.07011 2.6081,0.08179 4.1921,0.06833 1.5398,-0.01308 2.9847,-0.01469 3.8467,-0.1014 1.1919,-0.1199 2.0113,-0.65884 2.4278,-1.3787 0.41646,-0.71989 0.43318,-1.579 0.1664,-2.3223 -0.27822,-0.77517 -0.90773,-1.1539 -1.4748,-1.2893 -0.56712,-0.13547 -1.1183,-0.0801 -1.3281,-0.0801 -0.47612,0 -1.0724,-0.06535 -1.633,-0.44907 -0.47875,-0.32763 -0.55992,-0.99234 -0.42581,-1.465 0.14663,-0.51696 0.38891,-0.82119 0.85369,-1.0506 0.46479,-0.22939 1.1784,-0.35626 2.1833,-0.36329 1.5219,-0.01064 2.5654,-0.0011 3.4892,0.01291 -0.01693,2.6944 -0.03566,5.6676 -0.03566,6.2704 0,0.5802 0.1358,1.0488 0.39636,1.3984 0.26054,0.34954 0.63034,0.55872 1.0154,0.67593 0.7702,0.23442 1.6425,0.15968 2.3652,0.15968 1.4921,0 3.0861,-0.03514 3.0861,-0.03514 l 0.3731,-0.0098 v -4.2798 c 0.0053,-0.02601 0.0079,-0.05251 0.0078,-0.07906 0.02643,-0.76854 0.58228,-1.7348 2.0919,-1.7348 0.46126,0 0.96531,0.12381 1.3183,0.34778 0.35296,0.22397 0.55862,0.50476 0.55862,0.94516 0,0.99365 0.01188,2.5804 0.01188,3.6018 0,0.64834 0.18553,1.4133 0.63665,1.9022 0.34405,0.41544 0.94844,-0.14491 0.56017,-0.51935 -0.20328,-0.2203 -0.43356,-0.92659 -0.43356,-1.3829 0,-1.0275 -0.01138,-2.6144 -0.01138,-3.6018 0,-0.70857 -0.39837,-1.2657 -0.91209,-1.5916 -0.51372,-0.32599 -1.1397,-0.46664 -1.7286,-0.46664 -0.92244,0 -1.6229,0.32704 -2.0996,0.79685 v -0.77205 h -0.76378 v 6.0823 c -0.3171,0.007 -1.3955,0.03101 -2.6954,0.03101 -0.76326,0 -1.586,0.04274 -2.1425,-0.12661 -0.27825,-0.0847 -0.48069,-0.20721 -0.62477,-0.40049 -0.14408,-0.19328 -0.2465,-0.47802 -0.2465,-0.94154 0,-0.59076 0.01918,-3.5647 0.03617,-6.258 1.2889,0.02588 2.3336,0.05891 3.9073,0.05891 v -0.76326 c -1.5643,0 -2.609,-0.03287 -3.9031,-0.05891 0.0263,-4.1043 0.05374,-8.1742 0.05374,-8.1742 v -0.0021 c 0,-1.42 -0.23908,-2.3816 -0.80098,-2.9843 -0.42143,-0.45205 -0.99343,-0.63871 -1.6366,-0.65629 -0.1991,-0.0055 -0.4057,0.0069 -0.61598,0.031 -0.0114,5.29e-4 -0.02278,0.0016 -0.03411,0.0031 -0.0047,5.29e-4 -0.0093,5.29e-4 -0.01394,0.0011 v 0.0011 c -0.45443,0.08453 -0.39758,0.7526 0.06459,0.75913 0.01834,-6.3e-5 0.03664,-0.0013 0.05478,-0.0041 0.77477,-0.09217 1.2752,0.01558 1.6211,0.38706 0.34987,0.37529 0.59738,1.1332 0.59738,2.4629 -2.7e-5,0.004 -0.0276,4.0645 -0.05374,8.1638 -0.92638,-0.01416 -1.9733,-0.0241 -3.499,-0.01344 -1.0632,0.007 -1.8806,0.12794 -2.5156,0.44132 -0.63496,0.31338 -1.0593,0.84753 -1.2521,1.5276 -0.20669,0.72852 -0.08914,1.7458 0.7307,2.3068 0.73782,0.50505 1.5184,0.57981 2.0645,0.57981 0.30128,0 0.74061,-0.03744 1.1503,0.06046 0.40971,0.0979 0.74542,0.2782 0.93379,0.80305 0.19982,0.55672 0.17746,1.1854 -0.10955,1.6816 -0.28702,0.49614 -0.83381,0.90944 -1.8417,1.002 -0.60086,0.05518 -2.5009,0.08906 -3.7545,0.09685 -1.4435,0.009 -3.7283,-0.03537 -4.1535,-0.06586 -0.55522,-0.03981 -0.92776,-0.31023 -1.2149,-0.58323 -0.28716,-0.273 -0.48835,-0.64712 -0.62322,-1.0687 -0.26973,-0.8431 -0.25786,-1.7544 -0.25786,-2.2972 0,-0.31935 0.0038,-0.37506 0.02429,-0.64854 1.79,-0.0132 3.2965,-0.02739 4.931,-0.02739 h 0.38292 v -0.38085 c 0,-0.71007 -0.12866,-1.452 -0.5488,-2.0469 -0.42015,-0.59489 -1.1497,-0.99425 -2.1523,-0.99425 -1.083,0 -1.98,0.2942 -2.5668,0.99219 -0.35836,0.42628 -0.59672,1.0208 -0.72347,1.6976 -0.95515,0.0074 -1.6491,0.0088 -2.5926,0.01447 v -11.833 c 0,-1.6864 0.90115,-2.347 1.7575,-2.3301 0.85637,0.01691 1.7735,0.7284 1.7735,2.4179 h 0.0011 c 0.0077,0.19199 0.17633,0.34398 0.38189,0.34416 0.20556,-1.83e-4 0.37421,-0.15218 0.38189,-0.34416 h 0.0011 c 0,-0.0027 -5.3e-4,-0.0051 -5.3e-4,-0.0078 1.94e-4,-0.0019 2.65e-4,-0.0038 5.3e-4,-0.0057 -4.8e-5,-0.01035 -5.3e-4,-0.02069 -0.0016,-0.03101 -0.01866,-1.9599 -1.2401,-3.114 -2.5224,-3.1393 z m 57.673,0.02376 c -0.205,-0.0071 -0.41479,0.0043 -0.62632,0.03049 l 5.29e-4,0.0036 c -0.45026,0.09668 -0.37731,0.76003 0.0832,0.75654 0.03906,0.0026 0.07827,-0.0011 0.11627,-0.01035 0.66133,-0.06539 1.1453,0.04602 1.4955,0.40669 0.36901,0.38005 0.64027,1.1255 0.64027,2.4489 -1.3e-5,0.0016 -0.02418,3.4064 -0.04857,6.9892 h -13.49 c -0.60641,0 -1.0967,0.02495 -1.5586,0.17984 -0.41855,0.14037 -0.79088,0.3968 -1.157,0.77566 -0.03643,0.02564 -0.06807,0.05729 -0.09353,0.09353 -1.77e-4,2.65e-4 -2.65e-4,7.94e-4 -5.29e-4,0.0011 -0.0066,0.0073 -0.01349,0.01275 -0.02016,0.02016 l 0.0047,0.0041 c -0.034,0.05782 -0.052,0.12339 -0.05219,0.19017 -1.06e-4,0.21129 0.1742,0.38258 0.38912,0.3824 0.07953,-1.95e-4 0.15709,-0.02437 0.22221,-0.06925 l 0.0047,0.0041 c 0.01061,-0.0118 0.02,-0.01958 0.03049,-0.03101 0.01566,-0.01365 0.03018,-0.0285 0.04341,-0.04444 0.31027,-0.32833 0.56874,-0.50057 0.87126,-0.60203 0.32693,-0.10965 0.73406,-0.14056 1.3162,-0.14056 h 13.485 c -0.01977,2.9439 -0.04031,6.064 -0.04031,6.7412 0,1.0934 0.28071,2.1554 1.0351,2.9394 0.75435,0.78396 1.9506,1.2464 3.6504,1.2464 h 9.7948 v -0.76378 h -9.7948 c -1.5634,0 -2.5186,-0.41019 -3.0996,-1.0139 -0.58091,-0.6037 -0.82011,-1.4435 -0.82011,-2.4081 0,-0.66505 0.02051,-3.7904 0.04031,-6.7412 h 4.5599 c 0.99891,0 3.7537,0.0021 3.9238,0.0021 V 11.1019 h -8.4796 C 89.90379,7.5214 89.92854,4.1168 89.92854,4.1168 V 4.1126 c 0,-1.4263 -0.28073,-2.3884 -0.85731,-2.9822 -0.43253,-0.44532 -1.0031,-0.63236 -1.6181,-0.65366 z m -19.037,0.0072 c -0.09348,0.003 -0.18879,0.01 -0.28474,0.0181 h -5.29e-4 c -0.01434,8e-5 -0.02866,0.0011 -0.04289,0.0026 -0.0046,5.29e-4 -0.0089,5.29e-4 -0.01344,0.0011 v 0.0011 c -0.462,0.07481 -0.41165,0.75473 0.05633,0.76068 0.0053,-6.4e-5 0.01066,-2.41e-4 0.01601,-5.29e-4 v 5.29e-4 c 0.0078,-7.94e-4 0.0145,-7.94e-4 0.02223,-0.0016 0.80677,-0.07266 1.3121,0.03764 1.6516,0.40204 0.3427,0.3679 0.57981,1.1135 0.57981,2.4453 -2.9e-5,0.007 -0.09353,12.92 -0.09353,14.494 0,1.0934 0.27866,2.1538 1.033,2.9378 0.75436,0.78396 1.9506,1.248 3.6504,1.248 h 7.5608 v -5.5904 c 0.0093,-0.03418 0.01384,-0.06948 0.01344,-0.1049 0.0265,-0.76855 0.58216,-1.7327 2.0919,-1.7327 0.46126,0 0.96534,0.12174 1.3183,0.34572 0.35293,0.22397 0.55655,0.50474 0.55655,0.94516 0,0.99367 0.01188,2.5824 0.01188,3.6039 0,0.64834 0.18554,1.4112 0.63665,1.9001 0.34266,0.41463 0.94695,-0.14133 0.56224,-0.51728 -0.20327,-0.2203 -0.43356,-0.92659 -0.43356,-1.3829 0,-1.0275 -0.01138,-2.6164 -0.01138,-3.6039 0,-0.70856 -0.40047,-1.2656 -0.91415,-1.5916 -0.51369,-0.32596 -1.1377,-0.46457 -1.7265,-0.46457 -0.92598,0 -1.6285,0.32934 -2.1053,0.80202 v -0.80047 h -0.76378 v 7.428 h -6.797 c -1.5634,0 -2.5166,-0.4102 -3.0975,-1.0139 -0.5809,-0.6037 -0.82062,-1.4435 -0.82062,-2.4081 0,-1.5438 0.09405,-14.492 0.09405,-14.492 v -0.0021 c 0,-1.4179 -0.22806,-2.3683 -0.78548,-2.9667 -0.48776,-0.52362 -1.1796,-0.68775 -1.9648,-0.66249 z m -16,11.175 c -0.5681,0 -1.0351,0.46696 -1.0351,1.0351 0,0.56812 0.46698,1.0351 1.0351,1.0351 0.5681,0 1.0371,-0.46702 1.0371,-1.0351 0,-0.56808 -0.46904,-1.0351 -1.0371,-1.0351 z m 0,0.66404 c 0.2087,0 0.37104,0.1623 0.37104,0.37104 0,0.20874 -0.16234,0.37104 -0.37104,0.37104 -0.2087,0 -0.36897,-0.16236 -0.36897,-0.37104 0,-0.20868 0.16027,-0.37104 0.36897,-0.37104 z m -18.527,1.1188 c 0.81541,0 1.2422,0.26853 1.527,0.67179 0.21729,0.30766 0.34907,0.71659 0.39222,1.2247 -1.4478,0.0021 -2.8928,0.01206 -4.439,0.02326 0.12346,-0.55926 0.29902,-0.90417 0.53898,-1.1968 0.41409,-0.49257 1.0291,-0.72295 1.9808,-0.72295 z m 60.931,0.31316 c -1.4849,0.03182 -2.3794,0.62322 -2.8298,1.3606 -0.4804,0.78659 -0.48628,1.6709 -0.48628,2.1544 0,0.737 0.20782,1.4961 0.74983,2.0722 0.54166,0.57572 1.3986,0.93129 2.5725,0.93172 0,0 2.3575,0.0057 3.5388,0.0057 v -0.76533 c -1.1792,0 -3.5367,-0.0041 -3.5367,-0.0041 -1.0255,0 -1.6396,-0.28927 -2.018,-0.69143 -0.37836,-0.40215 -0.54105,-0.95347 -0.54105,-1.5487 0,-0.46359 0.03043,-1.1915 0.37517,-1.756 0.34474,-0.56447 0.97253,-1.0346 2.4572,-0.99219 1.5136,0.0433 2.0729,0.41443 2.3125,0.79323 0.17486,0.27642 0.14288,0.65757 0.14418,1.0232 l -3.652,0.02842 c -0.01439,-0.0016 -0.0289,-0.0026 -0.04341,-0.0026 -0.0159,2.52e-4 -0.03178,0.0016 -0.04754,0.0036 h -0.02429 v 0.0031 c -0.18375,0.03405 -0.31682,0.19186 -0.31678,0.37569 2.01e-4,0.18578 0.13626,0.34451 0.32246,0.37621 v 0.01035 l 4.5822,-0.03669 v -0.3793 c 0,-0.43152 0.09521,-1.1565 -0.31833,-1.8102 -0.41353,-0.65372 -1.2962,-1.1035 -2.9357,-1.1503 v -5.29e-4 c -0.10428,-0.003 -0.2059,-0.003 -0.30489,-0.0011 z m -18.18,0.09353 c -1.4847,0.03182 -2.3774,0.62322 -2.8277,1.3606 -0.4804,0.78659 -0.48628,1.671 -0.48628,2.1544 0,0.737 0.20576,1.4961 0.74776,2.0722 0.542,0.57607 1.3995,0.93172 2.5745,0.93172 0,0 2.3554,0.0057 3.5367,0.0057 v -0.76533 c -1.1792,0 -3.5352,-0.0041 -3.5352,-0.0041 h -0.0016 c -1.0255,0 -1.6396,-0.28927 -2.018,-0.69143 -0.37837,-0.40216 -0.54106,-0.95347 -0.54106,-1.5487 0,-0.46357 0.03043,-1.1915 0.37517,-1.756 0.34475,-0.56447 0.9746,-1.0346 2.4593,-0.99219 1.5136,0.0433 2.0708,0.41443 2.3105,0.79323 0.17487,0.27644 0.14495,0.65753 0.14624,1.0232 l -3.653,0.02842 c -0.01442,-0.0016 -0.0289,-0.0026 -0.04341,-0.0026 -0.0159,2.52e-4 -0.03178,0.0016 -0.04754,0.0036 h -0.02376 v 0.0031 c -0.18395,0.03383 -0.31729,0.19171 -0.31729,0.37569 2.65e-4,0.1861 0.13688,0.34494 0.32349,0.3762 v 0.01035 l 4.5801,-0.03669 v -0.37931 c 0,-0.43152 0.09521,-1.1565 -0.31832,-1.8102 -0.41354,-0.65372 -1.2962,-1.1035 -2.9357,-1.1503 -0.10428,-0.003 -0.20591,-0.0035 -0.30489,-0.0016 z m -15.257,0.28474 c -0.85128,-0.0109 -1.7905,0.22189 -2.6526,0.70125 -0.47801,0.23764 -0.08337,0.94831 0.37104,0.66818 0.74624,-0.41496 1.5702,-0.61466 2.2717,-0.60565 0.70152,0.009 1.2595,0.22811 1.5431,0.56844 0.08352,0.10023 0.1479,0.3216 0.16382,0.78703 7.93e-4,0.02199 -5.3e-4,0.05821 0,0.08113 -1.6638,-0.13391 -2.7922,0.096 -3.529,0.62218 -0.74899,0.53494 -1.0153,1.3676 -0.99219,2.1813 0.01945,0.68377 0.22641,1.2291 0.58187,1.6056 0.35546,0.3765 0.83411,0.56692 1.3322,0.63304 0.99622,0.13222 2.1098,-0.18563 2.9864,-0.60565 0.05088,-0.02199 0.09637,-0.0548 0.13333,-0.09612 0.14879,0.23721 0.31834,0.41841 0.50126,0.54364 0.55954,0.38306 1.1601,0.23203 1.1601,0.23203 0.5086,-0.12121 0.30683,-0.8856 -0.19534,-0.74 0,0 -0.24504,0.07234 -0.5333,-0.12506 -0.28826,-0.19734 -0.68251,-0.73366 -0.6873,-2.2753 -0.0027,-0.90549 0.02331,-1.5676 0.0057,-2.0841 -0.01767,-0.51657 -0.07103,-0.92578 -0.33952,-1.248 -0.4823,-0.57878 -1.27,-0.83294 -2.1213,-0.84388 z m 0.62322,2.9295 c 0.32078,-0.0087 0.67869,0.0024 1.0749,0.03617 -0.0043,0.34447 -0.01021,0.74524 -0.0088,1.2123 0.0021,0.72146 0.09174,1.2815 0.23358,1.725 -0.06163,2.64e-4 -0.12226,0.01561 -0.17673,0.04444 -0.776,0.37181 -1.8051,0.63643 -2.5549,0.53692 -0.37492,-0.0498 -0.66988,-0.17899 -0.87902,-0.40049 -0.20914,-0.22151 -0.35703,-0.55408 -0.37259,-1.1012 -0.01847,-0.6492 0.14875,-1.1639 0.67386,-1.5389 0.39384,-0.28128 1.0346,-0.48771 2.0097,-0.51418 z"
       dominant-baseline="auto"
       style="color:#000000;font-variant-ligatures:normal;font-variant-position:normal;font-variant-caps:normal;font-variant-numeric:normal;font-variant-alternates:normal;font-feature-settings:normal;text-indent:0;text-decoration:none;text-decoration-line:none;text-decoration-style:solid;text-decoration-color:#000000;text-transform:none;text-orientation:mixed;dominant-baseline:auto;white-space:normal;shape-padding:0;isolation:auto;mix-blend-mode:normal;solid-color:#000000;color-rendering:auto;image-rendering:auto;shape-rendering:auto"
       id="path3481"
       inkscape:connector-curvature="0" />
    <g
       transform="translate(15.91759)"
       id="g4095">
      <path
         inkscape:connector-curvature="0"
         id="path3483"
         d="m 47.6966,29.225 v 2.0445 h -0.63675 v -5.3212 h 0.63675 v 0.58512 q 0.19963,-0.34419 0.50251,-0.5094 0.30633,-0.16865 0.72968,-0.16865 0.70214,0 1.1393,0.55758 0.44056,0.55759 0.44056,1.4662 0,0.90866 -0.44056,1.4662 -0.43712,0.55758 -1.1393,0.55758 -0.42335,0 -0.72968,-0.16521 -0.30288,-0.16865 -0.50251,-0.51284 z m 2.1546,-1.3458 q 0,-0.6987 -0.28912,-1.0945 -0.28568,-0.39926 -0.78819,-0.39926 -0.50251,0 -0.79163,0.39926 -0.28568,0.39581 -0.28568,1.0945 0,0.69871 0.28568,1.098 0.28912,0.39582 0.79163,0.39582 0.50252,0 0.78819,-0.39582 0.28912,-0.39925 0.28912,-1.098 z" />
      <path
         inkscape:connector-curvature="0"
         id="path3485"
         d="m 53.7926,26.54 q -0.1067,-0.0619 -0.23405,-0.0895 -0.12391,-0.031 -0.27535,-0.031 -0.53693,0 -0.82605,0.35107 -0.28568,0.34763 -0.28568,1.0016 v 2.0307 h -0.63675 v -3.8549 h 0.63675 v 0.59889 q 0.19963,-0.35107 0.51972,-0.51973 0.32009,-0.17209 0.77786,-0.17209 0.0654,0 0.14456,0.0103 0.07916,0.007 0.17554,0.0241 z" />
      <path
         inkscape:connector-curvature="0"
         id="path3487"
         d="m 55.8056,26.392 q -0.5094,0 -0.8054,0.39926 -0.296,0.39582 -0.296,1.0876 0,0.69182 0.29256,1.0911 0.296,0.39582 0.80884,0.39582 0.50596,0 0.80196,-0.39926 0.296,-0.39926 0.296,-1.0876 0,-0.68493 -0.296,-1.0842 -0.296,-0.4027 -0.80196,-0.4027 z m 0,-0.53693 q 0.82605,0 1.2976,0.53693 0.47154,0.53694 0.47154,1.4869 0,0.94652 -0.47154,1.4869 -0.47154,0.53693 -1.2976,0.53693 -0.82949,0 -1.301,-0.53693 -0.4681,-0.54038 -0.4681,-1.4869 0,-0.94995 0.4681,-1.4869 0.47154,-0.53693 1.301,-0.53693 z" />
      <path
         inkscape:connector-curvature="0"
         id="path3489"
         d="m 61.1576,26.533 v -2.0858 h 0.63331 v 5.3556 H 61.1576 v -0.57824 q -0.19963,0.34419 -0.50596,0.51284 -0.30289,0.16521 -0.72968,0.16521 -0.6987,0 -1.1393,-0.55758 -0.43712,-0.55759 -0.43712,-1.4662 0,-0.90865 0.43712,-1.4662 0.44056,-0.55758 1.1393,-0.55758 0.42679,0 0.72968,0.16865 0.30633,0.16521 0.50596,0.5094 z m -2.1581,1.3458 q 0,0.69871 0.28568,1.098 0.28912,0.39582 0.79163,0.39582 0.50251,0 0.79163,-0.39582 0.28912,-0.39925 0.28912,-1.098 0,-0.6987 -0.28912,-1.0945 -0.28912,-0.39926 -0.79163,-0.39926 -0.50251,0 -0.79163,0.39926 -0.28568,0.39581 -0.28568,1.0945 z" />
      <path
         inkscape:connector-curvature="0"
         id="path3491"
         d="m 63.0306,28.282 v -2.3336 h 0.63331 v 2.3095 q 0,0.54726 0.2134,0.82261 0.2134,0.27191 0.64019,0.27191 0.51284,0 0.80884,-0.32698 0.29945,-0.32698 0.29945,-0.89145 v -2.1856 h 0.6333 v 3.8549 h -0.6333 v -0.59201 q -0.23061,0.35107 -0.53694,0.52317 -0.30288,0.16865 -0.70558,0.16865 -0.66428,0 -1.0085,-0.41303 -0.34419,-0.41302 -0.34419,-1.2081 z" />
      <path
         inkscape:connector-curvature="0"
         id="path3493"
         d="m 70.3446,26.096 v 0.592 q -0.26846,-0.148 -0.54037,-0.22028 -0.26847,-0.0757 -0.54382,-0.0757 -0.61609,0 -0.95684,0.39238 -0.34075,0.38893 -0.34075,1.0945 0,0.70559 0.34075,1.098 0.34075,0.38894 0.95684,0.38894 0.27535,0 0.54382,-0.0723 0.27191,-0.0757 0.54037,-0.22373 v 0.58512 q -0.26502,0.12391 -0.5507,0.18587 -0.28223,0.0619 -0.60232,0.0619 -0.8708,0 -1.3836,-0.54726 -0.51284,-0.54726 -0.51284,-1.4766 0,-0.94307 0.51628,-1.4835 0.51973,-0.54037 1.4215,-0.54037 0.29256,0 0.57135,0.0619 0.27879,0.0585 0.54037,0.17898 z" />
      <path
         inkscape:connector-curvature="0"
         id="path3495"
         d="m 72.0786,24.854 v 1.0945 h 1.3045 v 0.49219 h -1.3045 v 2.0927 q 0,0.47154 0.12735,0.60577 0.13079,0.13424 0.52661,0.13424 h 0.65052 v 0.53005 h -0.65052 q -0.73312,0 -1.0119,-0.27191 -0.2788,-0.27535 -0.2788,-0.99815 v -2.0927 H 70.97721 V 25.9485 h 0.46465 V 24.854 Z" />
      <path
         inkscape:connector-curvature="0"
         id="path3497"
         d="m 74.2196,25.948 h 0.63331 v 3.8549 H 74.2196 Z m 0,-1.5007 h 0.63331 v 0.80196 H 74.2196 Z" />
      <path
         inkscape:connector-curvature="0"
         id="path3499"
         d="m 77.6686,26.392 q -0.5094,0 -0.8054,0.39926 -0.29601,0.39582 -0.29601,1.0876 0,0.69182 0.29256,1.0911 0.29601,0.39582 0.80885,0.39582 0.50595,0 0.80195,-0.39926 0.29601,-0.39926 0.29601,-1.0876 0,-0.68493 -0.29601,-1.0842 -0.296,-0.4027 -0.80195,-0.4027 z m 0,-0.53693 q 0.82605,0 1.2976,0.53693 0.47154,0.53694 0.47154,1.4869 0,0.94652 -0.47154,1.4869 -0.47153,0.53693 -1.2976,0.53693 -0.8295,0 -1.301,-0.53693 -0.4681,-0.54038 -0.4681,-1.4869 0,-0.94995 0.4681,-1.4869 0.47153,-0.53693 1.301,-0.53693 z" />
      <path
         inkscape:connector-curvature="0"
         id="path3501"
         d="m 83.6886,27.476 v 2.3267 h -0.6333 v -2.3061 q 0,-0.54726 -0.2134,-0.81917 -0.2134,-0.27191 -0.64019,-0.27191 -0.51284,0 -0.80884,0.32698 -0.296,0.32698 -0.296,0.89145 v 2.1787 h -0.63675 v -3.8549 h 0.63675 v 0.59889 q 0.22716,-0.34763 0.53349,-0.51973 0.30977,-0.17209 0.71247,-0.17209 0.66428,0 1.005,0.41302 0.34074,0.40959 0.34074,1.2081 z" />
      <path
         inkscape:connector-curvature="0"
         id="path3503"
         d="m 87.4156,26.062 v 0.59889 q -0.26847,-0.13768 -0.55758,-0.20651 -0.28912,-0.0688 -0.59889,-0.0688 -0.47154,0 -0.70903,0.14456 -0.23405,0.14456 -0.23405,0.43367 0,0.22028 0.16866,0.34763 0.16865,0.12391 0.67805,0.23749 l 0.21683,0.0482 q 0.67461,0.14456 0.95685,0.40958 0.28567,0.26159 0.28567,0.73312 0,0.53694 -0.42679,0.85015 -0.42335,0.31321 -1.1668,0.31321 -0.30977,0 -0.64707,-0.0619 -0.33386,-0.0585 -0.70559,-0.17898 v -0.65396 q 0.35108,0.18242 0.69182,0.27535 0.34075,0.0895 0.67461,0.0895 0.44744,0 0.68838,-0.15144 0.24093,-0.15489 0.24093,-0.43368 0,-0.25814 -0.17554,-0.39582 -0.17209,-0.13767 -0.76065,-0.26502 l -0.22028,-0.0516 q -0.58857,-0.12391 -0.85015,-0.37861 -0.26158,-0.25814 -0.26158,-0.70558 0,-0.54382 0.38549,-0.83982 0.38549,-0.296 1.0945,-0.296 0.35107,0 0.66084,0.0516 0.30977,0.0516 0.57135,0.15488 z" />
    </g>
  </g>
</svg>
