<?xml version="1.0" encoding="UTF-8"?>
<svg width="841.54" height="570.11" version="1.1" viewBox="0 0 841.54 570.11" xmlns="http://www.w3.org/2000/svg"><path d="m465.21 2.729e-4c-38.903-0.003244-77.807 0.023859-116.71 0.006049h-288.61c-21.132 5.0356-40.019 18.821-50.098 38.212-6.41 12.307-10.92 25.983-9.5419 39.996-0.095529 123.24-1.0231 246.51 1.6004 369.74 0.84606 33.997 14.632 68.254 40.976 90.433 25.224 21.793 59.098 32.658 92.265 31.286 118.75 0.85017 237.51 0.47376 356.25-1.1993 16.699 0.45165 33.476-1.7572 48.969-8.2258 29.382-10.633 54.724-31.786 69.777-59.251 8.7525-15.435 14.752-32.395 17.955-49.836 49.246-4.9327 97.803-23.159 136.12-54.827 34.672-28.962 60.777-68.502 71.226-112.66 5.631-20.185 6.5994-41.187 5.9763-62.023-0.02538-42.536-12.876-84.887-35.185-121-30.608-48.596-82.443-81.741-137.81-94.928-28.204-7.39-57.632-4.6762-86.454-5.555-38.903-0.13529-77.805-0.16809-116.71-0.17133zm164.49 187.78c5.8406 1.8584 11.651 6.0878 15.401 12.096 3.9374 6.3069 5.6735 14.596 5.7062 25.135 0.0326 10.48-2.0179 19.397-6.1033 25.985-3.936 6.3473-9.8087 10.526-15.077 12.265 0.3962-25.159-0.41063-50.322 0.0726-75.481z" fill="#fff"/><path d="m317.22 420.28c-1.6411-0.6654-10.011-8.0769-34.953-30.95-50.456-46.271-82.602-78.526-91.856-92.167-9.2222-13.594-16.094-31.615-18.526-48.584-6.1865-43.162 15.36-75.083 56.531-83.749 9.3963-1.9777 25.821-1.9989 35.56-0.0459 19.003 3.8107 36.437 12.865 50.623 26.29l6.3489 6.0086 4.1454-3.9345c15.319-14.54 34.815-25.167 52.946-28.862 8.529-1.7381 23.711-1.8944 31.394-0.32324 15.75 3.2207 30.023 10.757 40.856 21.573 6.0183 6.0089 9.7692 11.402 13.651 19.628 11.981 25.388 7.358 60.629-11.38 86.748-12.322 17.175-61.481 66.636-119.13 119.86-9.8585 9.1019-11.993 10.222-16.214 8.5106z" fill="#ff5050"/><path d="m583.23 333.6c-10.96-0.64369-16.435-3.7933-20.361-11.714l-1.6385-3.3052v-181.33l1.6385-3.3052c2.0846-4.2051 5.5178-7.6383 9.7229-9.7229l3.3052-1.6385 25.667 0.0153c28.993 0.0173 32.248 0.36844 46.089 4.9732 12.147 4.0411 20.768 8.8497 30.711 17.13 25.11 20.909 36.992 51.274 34.513 88.198-1.8948 28.221-9.6455 49.201-24.592 66.568-8.2893 9.6313-18.881 17.521-32.387 24.127-15.806 7.7298-20.703 8.8313-44.333 9.9723-14.588 0.70439-16.916 0.70743-28.333 0.0369zm34.651-40.73c8.3945-0.63526 9.9249-0.9552 15.449-3.2296 20.981-8.6388 32.998-22.917 37.646-44.727 2.0296-9.5248 2.2346-30.245 0.37771-38.16-2.4184-10.307-6.7868-18.471-14.122-26.392-7.2446-7.8226-16.312-13.171-26.867-15.849-5.4224-1.3755-7.8774-1.5992-17.552-1.5992h-11.248v130.67l3.5-3e-3c1.925-1e-3 7.6929-0.32001 12.818-0.70783z" stroke-width=".66667"/><path d="m126.59 533.85c-22.901-3.5584-42.01-12.401-56.41-26.105-17.063-16.238-26.051-36.659-27.924-63.447-1.1729-16.775-2.1177-144.92-1.8952-257.06l0.22086-111.33 1.4674-5.166c4.6902-16.511 16.065-29.236 30.304-33.9l4.885-1.6002h274c294.45 0 277.47-0.19526 295.67 3.4001 30.947 6.1151 59.892 19.447 86 39.611 7.5467 5.8287 21.439 19.547 27.33 26.988 16.966 21.429 29.427 48.025 36.008 76.853 4.1517 18.185 4.9461 25.88 4.9706 48.147 0.0173 15.964-0.22386 21.945-1.1239 27.832-6.3233 41.368-22.754 74.417-51.153 102.89-16.324 16.369-30.444 26.461-51.699 36.954-26.365 13.015-52.247 20.097-84 22.985-4.0333 0.36681-8.89 0.66719-10.792 0.66749l-3.4591 5.6e-4 -0.38114 2.8333c-1.6857 12.532-2.702 18.346-4.3271 24.757-7.1803 28.325-22.801 51.885-43.682 65.888-12.532 8.4038-30.295 15.551-43.587 17.538-13.77 2.0589-367.73 3.2299-380.42 1.2585zm317.72-39.723c35.405 0 42.162 1.1134 63.258-2.9059s37.965-22.42 45.687-45.995c3.2449-9.9057 4.8701-19.868 5.8889-36.099 0.83516-13.305 0.96969-14.149 2.7868-17.488 2.2504-4.1348 4.7386-6.3916 9.304-8.4389 3.1044-1.3922 4.5465-1.5186 21-1.8414 23.237-0.45586 35.361-2.0472 54.6-7.1664 44.18-11.756 80.739-40.17 99.376-77.236 14.206-28.254 18.66-61.918 12.713-96.087-5.8629-33.688-19.489-60.973-40.785-81.672-7.7497-7.5323-11.684-10.648-22.132-17.528-20.29-13.36-39.718-20.81-65.772-25.219-6.6144-1.1195-21.815-1.1951-275.95-1.3727l-268.95-0.18796-1.533 1.4402c-0.84317 0.79212-1.821 2.3711-2.1729 3.5088-1.7601 5.6903-1.2784 303.88 0.57035 353.07 0.68458 18.213 1.5772 22.731 6.4445 32.617 6.4677 13.137 24.775 25.444 36.485 27.023s20.607 1.5788 26.584 1.5788h292.59z" stroke-width=".66667"/></svg>
